<svg width="20" height="20" viewBox="0 0 27 19" fill="none" xmlns="http://www.w3.org/2000/svg">
<path d="M4.74716 8.61648C3.99148 8.61648 3.30398 8.43466 2.68466 8.07102C2.06534 7.7017 1.57102 7.20739 1.2017 6.58807C0.832386 5.96307 0.647727 5.27273 0.647727 4.51704C0.647727 3.76704 0.832386 3.08239 1.2017 2.46307C1.57102 1.83807 2.06534 1.34375 2.68466 0.980114C3.30398 0.610795 3.99148 0.426136 4.74716 0.426136C5.50284 0.426136 6.19034 0.610795 6.80966 0.980114C7.42898 1.34375 7.9233 1.83807 8.29261 2.46307C8.66193 3.08239 8.84659 3.76704 8.84659 4.51704C8.84659 5.27273 8.66193 5.96307 8.29261 6.58807C7.9233 7.20739 7.42898 7.7017 6.80966 8.07102C6.19034 8.43466 5.50284 8.61648 4.74716 8.61648ZM4.74716 6.43466C5.09943 6.43466 5.42045 6.34943 5.71023 6.17898C6 6.00852 6.23011 5.77841 6.40057 5.48864C6.5767 5.19886 6.66477 4.875 6.66477 4.51704C6.66477 4.16477 6.5767 3.84375 6.40057 3.55398C6.23011 3.2642 6 3.03409 5.71023 2.86364C5.42045 2.69318 5.09943 2.60795 4.74716 2.60795C4.39489 2.60795 4.07386 2.69318 3.78409 2.86364C3.49432 3.03409 3.26136 3.2642 3.08523 3.55398C2.91477 3.84375 2.82955 4.16477 2.82955 4.51704C2.82955 4.86932 2.91477 5.19318 3.08523 5.48864C3.25568 5.77841 3.4858 6.00852 3.77557 6.17898C4.07102 6.34943 4.39489 6.43466 4.74716 6.43466ZM26.5227 6.43466H23.3352C23.2443 5.91193 23.0767 5.44886 22.8324 5.04545C22.5881 4.63636 22.2841 4.28977 21.9205 4.00568C21.5568 3.72159 21.142 3.50852 20.6761 3.36648C20.2159 3.21875 19.7188 3.14489 19.1847 3.14489C18.2358 3.14489 17.3949 3.38352 16.6619 3.86079C15.929 4.33239 15.3551 5.02557 14.9403 5.94034C14.5256 6.84943 14.3182 7.96023 14.3182 9.27273C14.3182 10.608 14.5256 11.733 14.9403 12.6477C15.3608 13.5568 15.9347 14.2443 16.6619 14.7102C17.3949 15.1705 18.233 15.4006 19.1761 15.4006C19.6989 15.4006 20.1875 15.3324 20.642 15.196C21.1023 15.054 21.5142 14.8466 21.8778 14.5739C22.2472 14.3011 22.5568 13.9659 22.8068 13.5682C23.0625 13.1705 23.2386 12.7159 23.3352 12.2045L26.5227 12.2216C26.4034 13.0511 26.1449 13.8295 25.7472 14.5568C25.3551 15.2841 24.8409 15.9261 24.2045 16.483C23.5682 17.0341 22.8239 17.4659 21.9716 17.7784C21.1193 18.0852 20.1733 18.2386 19.1335 18.2386C17.5994 18.2386 16.2301 17.8835 15.0256 17.1733C13.821 16.4631 12.8722 15.4375 12.179 14.0966C11.4858 12.7557 11.1392 11.1477 11.1392 9.27273C11.1392 7.39205 11.4886 5.78409 12.1875 4.44886C12.8864 3.10795 13.8381 2.08239 15.0426 1.37216C16.2472 0.661931 17.6108 0.306818 19.1335 0.306818C20.1051 0.306818 21.0085 0.443181 21.8438 0.715908C22.679 0.988636 23.4233 1.3892 24.0767 1.91761C24.7301 2.44034 25.267 3.08239 25.6875 3.84375C26.1136 4.59943 26.392 5.46307 26.5227 6.43466Z" fill="white"/>
</svg>
