<svg width="20" height="20" viewBox="0 0 26 19" fill="none" xmlns="http://www.w3.org/2000/svg">
<path d="M4.20455 7.67898C3.52841 7.67898 2.91193 7.5142 2.35511 7.18466C1.7983 6.85511 1.35511 6.41477 1.02557 5.86364C0.696023 5.30682 0.53125 4.69034 0.53125 4.0142C0.53125 3.33807 0.696023 2.72159 1.02557 2.16477C1.35511 1.60795 1.7983 1.16477 2.35511 0.835227C2.91193 0.505681 3.52841 0.340908 4.20455 0.340908C4.88068 0.340908 5.49716 0.505681 6.05398 0.835227C6.6108 1.16477 7.05398 1.60795 7.38352 2.16477C7.71307 2.72159 7.87784 3.33807 7.87784 4.0142C7.87784 4.69034 7.71307 5.30682 7.38352 5.86364C7.05398 6.41477 6.6108 6.85511 6.05398 7.18466C5.49716 7.5142 4.88068 7.67898 4.20455 7.67898ZM4.20455 6.75C4.71023 6.75 5.17045 6.62784 5.58523 6.38352C6 6.13352 6.32955 5.80114 6.57386 5.38636C6.81818 4.97159 6.94034 4.51136 6.94034 4.00568C6.94034 3.50568 6.81818 3.04829 6.57386 2.63352C6.32955 2.21875 6 1.8892 5.58523 1.64489C5.17045 1.39489 4.71023 1.26989 4.20455 1.26989C3.69886 1.26989 3.23864 1.39489 2.82386 1.64489C2.40909 1.8892 2.07955 2.21875 1.83523 2.63352C1.59091 3.04829 1.46875 3.50568 1.46875 4.00568C1.46875 4.51136 1.59091 4.97159 1.83523 5.38636C2.07955 5.80114 2.40909 6.13352 2.82386 6.38352C3.23864 6.62784 3.69886 6.75 4.20455 6.75ZM25.2045 6H24.1136C24 5.40909 23.7869 4.83807 23.4744 4.28693C23.1619 3.73011 22.7585 3.23011 22.2642 2.78693C21.7756 2.33807 21.2074 1.98295 20.5597 1.72159C19.9119 1.46023 19.196 1.32954 18.4119 1.32954C17.2642 1.32954 16.2074 1.63636 15.2415 2.25C14.2813 2.85795 13.5114 3.75284 12.9318 4.93466C12.358 6.11648 12.071 7.5625 12.071 9.27273C12.071 10.9943 12.358 12.446 12.9318 13.6278C13.5114 14.8097 14.2813 15.7045 15.2415 16.3125C16.2074 16.9148 17.2642 17.2159 18.4119 17.2159C19.196 17.2159 19.9119 17.0881 20.5597 16.8324C21.2074 16.571 21.7756 16.2187 22.2642 15.7756C22.7585 15.3267 23.1619 14.8239 23.4744 14.267C23.7869 13.7102 24 13.1364 24.1136 12.5455H25.2045C25.0795 13.25 24.8381 13.9403 24.4801 14.6165C24.1278 15.2926 23.6619 15.9062 23.0824 16.4574C22.5085 17.0028 21.8295 17.4375 21.0455 17.7614C20.267 18.0795 19.3892 18.2386 18.4119 18.2386C16.9574 18.2386 15.6761 17.8693 14.5682 17.1307C13.4602 16.3864 12.5909 15.3409 11.9602 13.9943C11.3352 12.6477 11.0227 11.0739 11.0227 9.27273C11.0227 7.47159 11.3352 5.89773 11.9602 4.55114C12.5909 3.20455 13.4602 2.16193 14.5682 1.42329C15.6761 0.678977 16.9574 0.306818 18.4119 0.306818C19.3892 0.306818 20.267 0.46875 21.0455 0.792614C21.8295 1.1108 22.5085 1.54261 23.0824 2.08807C23.6619 2.62784 24.1278 3.2358 24.4801 3.91193C24.8381 4.58807 25.0795 5.28409 25.2045 6Z" fill="white"/>
</svg>
