<svg width="20" height="20" viewBox="0 0 22 18" fill="none" xmlns="http://www.w3.org/2000/svg">
<path d="M4.20455 7.67898C3.52841 7.67898 2.91193 7.5142 2.35511 7.18466C1.7983 6.85511 1.35511 6.41477 1.02557 5.86364C0.696023 5.30682 0.53125 4.69034 0.53125 4.0142C0.53125 3.33807 0.696023 2.72159 1.02557 2.16477C1.35511 1.60795 1.7983 1.16477 2.35511 0.835227C2.91193 0.505681 3.52841 0.340908 4.20455 0.340908C4.88068 0.340908 5.49716 0.505681 6.05398 0.835227C6.6108 1.16477 7.05398 1.60795 7.38352 2.16477C7.71307 2.72159 7.87784 3.33807 7.87784 4.0142C7.87784 4.69034 7.71307 5.30682 7.38352 5.86364C7.05398 6.41477 6.6108 6.85511 6.05398 7.18466C5.49716 7.5142 4.88068 7.67898 4.20455 7.67898ZM4.20455 6.75C4.71023 6.75 5.17045 6.62784 5.58523 6.38352C6 6.13352 6.32955 5.80114 6.57386 5.38636C6.81818 4.97159 6.94034 4.51136 6.94034 4.00568C6.94034 3.50568 6.81818 3.04829 6.57386 2.63352C6.32955 2.21875 6 1.8892 5.58523 1.64489C5.17045 1.39489 4.71023 1.26989 4.20455 1.26989C3.69886 1.26989 3.23864 1.39489 2.82386 1.64489C2.40909 1.8892 2.07955 2.21875 1.83523 2.63352C1.59091 3.04829 1.46875 3.50568 1.46875 4.00568C1.46875 4.51136 1.59091 4.97159 1.83523 5.38636C2.07955 5.80114 2.40909 6.13352 2.82386 6.38352C3.23864 6.62784 3.69886 6.75 4.20455 6.75ZM12.1818 18V0.545454H21.9233V1.53409H13.2472V8.76989H21.1136V9.75852H13.2472V18H12.1818Z" fill="white"/>
</svg>
