<svg width="20" height="20" viewBox="0 0 24 18" fill="none" xmlns="http://www.w3.org/2000/svg">
<path d="M4.74716 8.61648C3.99148 8.61648 3.30398 8.43466 2.68466 8.07102C2.06534 7.7017 1.57102 7.20739 1.2017 6.58807C0.832386 5.96307 0.647727 5.27273 0.647727 4.51704C0.647727 3.76704 0.832386 3.08239 1.2017 2.46307C1.57102 1.83807 2.06534 1.34375 2.68466 0.980114C3.30398 0.610795 3.99148 0.426136 4.74716 0.426136C5.50284 0.426136 6.19034 0.610795 6.80966 0.980114C7.42898 1.34375 7.9233 1.83807 8.29261 2.46307C8.66193 3.08239 8.84659 3.76704 8.84659 4.51704C8.84659 5.27273 8.66193 5.96307 8.29261 6.58807C7.9233 7.20739 7.42898 7.7017 6.80966 8.07102C6.19034 8.43466 5.50284 8.61648 4.74716 8.61648ZM4.74716 6.43466C5.09943 6.43466 5.42045 6.34943 5.71023 6.17898C6 6.00852 6.23011 5.77841 6.40057 5.48864C6.5767 5.19886 6.66477 4.875 6.66477 4.51704C6.66477 4.16477 6.5767 3.84375 6.40057 3.55398C6.23011 3.2642 6 3.03409 5.71023 2.86364C5.42045 2.69318 5.09943 2.60795 4.74716 2.60795C4.39489 2.60795 4.07386 2.69318 3.78409 2.86364C3.49432 3.03409 3.26136 3.2642 3.08523 3.55398C2.91477 3.84375 2.82955 4.16477 2.82955 4.51704C2.82955 4.86932 2.91477 5.19318 3.08523 5.48864C3.25568 5.77841 3.4858 6.00852 3.77557 6.17898C4.07102 6.34943 4.39489 6.43466 4.74716 6.43466ZM11.9659 18V0.545454H23.1477V3.19602H15.1278V7.93466H22.3807V10.5852H15.1278V18H11.9659Z" fill="white"/>
</svg>
